<svg xmlns="http://www.w3.org/2000/svg" width="462.289" height="120" viewBox="0 0 462.289 120">
  <defs>
    <style>
      .cls-1 {
        fill: #a2a2a2;
      }

      .cls-2 {
        fill: #2fa8e6;
      }

      .cls-3 {
        fill: #6b9777;
      }

      .cls-4 {
        fill: #85bc94;
      }

      .cls-5 {
        fill: #818080;
      }

      .cls-6 {
        fill: #dbdbdb;
      }

      .cls-7 {
        fill: #b9b9b9;
      }

      .cls-8 {
        fill: #f9f9f9;
      }

      .cls-9 {
        fill: #242826;
      }

      .cls-10 {
        fill: #545454;
      }
    </style>
  </defs>
  <g id="logo-light" transform="translate(-1124 -817)">
    <g id="ai" transform="translate(1124 817)">
      <path id="Trazado_122" data-name="Trazado 122" class="cls-1" d="M126.066,298v12l18,18h-64l14-14V302l-6-10V280h38Zm0,0" transform="translate(-49.143 -210)"/>
      <path id="Trazado_123" data-name="Trazado 123" class="cls-2" d="M32.091,169.91a1.986,1.986,0,0,1,2-1.962l.018-.018a2,2,0,0,1,1.982,2.018l-.088,14H47.985a1.975,1.975,0,0,1,.5.1,4,4,0,1,1,0,3.8,1.975,1.975,0,0,1-.5.1h-14a2,2,0,0,1-2-2.018Zm0,0" transform="translate(50.938 -125.948)"/>
      <path id="Trazado_124" data-name="Trazado 124" class="cls-2" d="M34.065,39.941h16v-8a1.994,1.994,0,0,1,.1-.5,4,4,0,1,1,3.8,0,1.992,1.992,0,0,1,.1.5v10a2,2,0,0,1-2,2h-18a2,2,0,1,1,0-4Zm0,0" transform="translate(50.858 -17.941)"/>
      <path id="Trazado_125" data-name="Trazado 125" class="cls-2" d="M10.058,129.642h.03L33.142,130a1.851,1.851,0,0,1,.454.1,4,4,0,1,1,0,3.8,1.924,1.924,0,0,1-.486.1h-.032l-23.052-.356a2,2,0,0,1,.032-4Zm0,0" transform="translate(71.813 -95.999)"/>
      <path id="Trazado_126" data-name="Trazado 126" class="cls-3" d="M30.066,228a6,6,0,1,0-6-6A6,6,0,0,0,30.066,228Zm0-8a2,2,0,1,1-2,2A2,2,0,0,1,30.066,220Zm0,0" transform="translate(72.856 -162)"/>
      <path id="Trazado_127" data-name="Trazado 127" class="cls-3" d="M30.066,28a6,6,0,1,0-6-6A6,6,0,0,0,30.066,28Zm0-8a2,2,0,1,1-2,2A2,2,0,0,1,30.066,20Zm0,0" transform="translate(72.856 -12)"/>
      <path id="Trazado_128" data-name="Trazado 128" class="cls-3" d="M6.052,132a6,6,0,1,0-1.84-.29,6,6,0,0,0,1.84.29Zm0-8a2.054,2.054,0,0,1,.6.1,2,2,0,1,1-.6-.1Zm0,0" transform="translate(102.87 -89.999)"/>
      <g id="Grupo_173" data-name="Grupo 173" transform="translate(28.923)">
        <path id="Trazado_129" data-name="Trazado 129" class="cls-4" d="M250.566,179.966h15a2.05,2.05,0,1,0,0-4h-15a2.05,2.05,0,1,0,0,4Zm0,0" transform="translate(-244.066 -131.966)"/>
        <path id="Trazado_130" data-name="Trazado 130" class="cls-4" d="M234.066,132h16a2,2,0,0,0,0-4h-16a2,2,0,1,0,0,4Zm0,0" transform="translate(-224.066 -96)"/>
        <path id="Trazado_131" data-name="Trazado 131" class="cls-4" d="M250.066,84h12a2,2,0,0,0,0-4h-12a2,2,0,0,0,0,4Zm0,0" transform="translate(-240.066 -60)"/>
        <path id="Trazado_132" data-name="Trazado 132" class="cls-4" d="M184.066,10h18a2,2,0,0,0,2-2V4h16v8a2,2,0,0,0,4,0V2a2,2,0,0,0-2-2h-20a2,2,0,0,0-2,2V6h-16Zm0,0" transform="translate(-184.066)"/>
        <path id="Trazado_133" data-name="Trazado 133" class="cls-4" d="M228.066,224h-4v4h4Zm0,0" transform="translate(-198.066 -168)"/>
        <path id="Trazado_134" data-name="Trazado 134" class="cls-4" d="M260.066,224h-4v4h4Zm0,0" transform="translate(-238.066 -168)"/>
        <path id="Trazado_135" data-name="Trazado 135" class="cls-4" d="M300.066,224h-12v4h12Zm0,0" transform="translate(-286.066 -168)"/>
        <path id="Trazado_136" data-name="Trazado 136" class="cls-4" d="M178.066,230a2,2,0,0,0,2-2V210a2,2,0,0,0-4,0v18A2,2,0,0,0,178.066,230Zm0,0" transform="translate(-138.066 -156)"/>
      </g>
      <path id="Trazado_137" data-name="Trazado 137" class="cls-2" d="M110.692,70a14,14,0,0,1,.106-1.644l-7.158-5.893,4-6.928,8.69,3.264a13.837,13.837,0,0,1,2.84-1.656L120.692,48h8l1.524,9.136a13.909,13.909,0,0,1,2.84,1.656l8.69-3.256,4,6.928-7.158,5.893a13.038,13.038,0,0,1,0,3.287l7.158,5.893-4,6.928-8.69-3.264a13.907,13.907,0,0,1-2.84,1.656L129.692,86l-1,6h-8l-1.521-9.136a13.836,13.836,0,0,1-2.84-1.656l-8.69,3.256-4-6.928,7.158-5.893A14,14,0,0,1,110.692,70Zm14,6a6,6,0,1,0-6-6A6,6,0,0,0,124.692,76Zm0,0" transform="translate(-56.718 -36)"/>
      <path id="Trazado_138" data-name="Trazado 138" class="cls-5" d="M80.066,280v32l14,16h20l-18-18V280Zm0,0" transform="translate(-19.143 -210)"/>
      <path id="Trazado_139" data-name="Trazado 139" class="cls-6" d="M222.066,306h16V280h-22v12l6,10Zm0,0" transform="translate(-177.143 -210)"/>
      <path id="Trazado_140" data-name="Trazado 140" class="cls-6" d="M270.066,384v22h-22l14-14v-8Zm0,0" transform="translate(-217.143 -288)"/>
      <path id="Trazado_141" data-name="Trazado 141" class="cls-1" d="M266.066,280v14l-8,8-10-14v-8Zm0,0" transform="translate(-213.143 -210)"/>
      <path id="Trazado_142" data-name="Trazado 142" class="cls-7" d="M180.066,320h-4v4h4Zm0,0" transform="translate(-109.143 -240)"/>
      <path id="Trazado_143" data-name="Trazado 143" class="cls-7" d="M180.066,352h-4v4h4Zm0,0" transform="translate(-109.143 -264)"/>
      <path id="Trazado_144" data-name="Trazado 144" class="cls-7" d="M180.066,401.428l-4-4.569V384h4Zm0,0" transform="translate(-109.143 -288)"/>
      <path id="Trazado_145" data-name="Trazado 145" class="cls-5" d="M278.113,296.466,272.067,288v-8h12v12Zm0,0" transform="translate(-237.144 -210)"/>
      <path id="Trazado_146" data-name="Trazado 146" class="cls-6" d="M314.988,24l10,14V62l-6,8v8l10,4V98s-16,10-18,10h-12V96l-4-4V84h-4.922a2,2,0,0,1-1.828-2.812L294.988,66a13.653,13.653,0,0,1-4-9.656,32.917,32.917,0,0,1,18.2-29.441Zm0,0" transform="translate(-286.065 -18)"/>
      <path id="Trazado_147" data-name="Trazado 147" class="cls-6" d="M370.066,170h6a2,2,0,1,0,0-4h-4v-4a2,2,0,0,0-4,0v6A2,2,0,0,0,370.066,170Zm0,0" transform="translate(-355.144 -120)"/>
      <path id="Trazado_148" data-name="Trazado 148" class="cls-6" d="M378.751,272.66a2,2,0,0,1,2.828,2.828,15.547,15.547,0,0,1-11.07,4.586h-.344l-2-2v-2h2.344A11.576,11.576,0,0,0,378.751,272.66Zm0,0" transform="translate(-359.243 -204.074)"/>
      <path id="Trazado_149" data-name="Trazado 149" class="cls-8" d="M332.066,80h-4v8h4Zm0,0" transform="translate(-299.144 -60)"/>
      <path id="Trazado_150" data-name="Trazado 150" class="cls-8" d="M332.066,128h-4v4h4Zm0,0" transform="translate(-299.144 -96)"/>
      <path id="Trazado_151" data-name="Trazado 151" class="cls-8" d="M332.066,160h-4v4h4Zm0,0" transform="translate(-299.144 -120)"/>
      <path id="Trazado_152" data-name="Trazado 152" class="cls-9" d="M376.066,170h-6a2,2,0,0,1-2-2v-6a2,2,0,0,1,4,0v4h4a2,2,0,1,1,0,4Zm0,0" transform="translate(-355.144 -120)"/>
      <path id="Trazado_153" data-name="Trazado 153" class="cls-9" d="M163.859,120a8,8,0,1,1,8-8A8,8,0,0,1,163.859,120Zm0-12a4,4,0,1,0,4,4A4,4,0,0,0,163.859,108Zm0,0" transform="translate(-95.885 -78)"/>
      <path id="Trazado_154" data-name="Trazado 154" class="cls-9" d="M111.661,41.336a5.969,5.969,0,0,1-8.38-3.36l-15.729-.243L90.3,40a2,2,0,0,1,.462,2.544L87.021,49l-.082,9h9.981a1.761,1.761,0,0,1,.347.07,6,6,0,1,1,0,3.859,1.761,1.761,0,0,1-.347.07h-12a2,2,0,0,1-2-2.018l.092-10.137-6.4-2.4q-.652.422-1.322.771l-1.35,8.108A2,2,0,0,1,71.966,58H70.921V68h6a2,2,0,0,1,2,2V99.172l17.414,17.414A2,2,0,0,1,94.921,120h-64a2,2,0,0,1-1.414-3.414l13.414-13.414V92.554L38.443,85.1C30.888,89.655,26.321,92,24.921,92h-12a2,2,0,0,1-2-2V78.828L7.509,75.416A2.019,2.019,0,0,1,6.921,74V68H4A4,4,0,0,1,.343,62.376l6.219-14A15.543,15.543,0,0,1,2.921,38.342,34.723,34.723,0,0,1,22.22,7.115l5.8-2.9a2,2,0,0,1,2.52.628L31.379,6H44.921V2a2,2,0,0,1,2-2h20a2,2,0,0,1,2,2v8h3.052a2,2,0,0,1,1.975,1.672l1.35,8.106c.446.233.889.489,1.322.771l7.7-2.886a2,2,0,0,1,2.434.872l2.017,3.494c.052,0,.094-.03.146-.03h12V15.632a6,6,0,1,1,4,0V24a2,2,0,0,1-2,2H90.951a1.979,1.979,0,0,1-.654,2l-6.344,5.224c0,.146,0,.3.012.444l19.324.3a6,6,0,1,1,8.372,7.37ZM102.921,62a2,2,0,1,0-2-2A2,2,0,0,0,102.921,62Zm0-54a2,2,0,1,0,2,2A2,2,0,0,0,102.921,8Zm-36,50H63.972A2,2,0,0,1,62,56.33l-1.352-8.108c-.444-.231-.887-.489-1.32-.771l-7.706,2.886a2,2,0,0,1-2.434-.872L48.342,48H38.921a1.828,1.828,0,0,1-.434-.088l-3.566,4.754V56h8v4H38.306l5.356,2.142A2,2,0,0,1,44.921,64v4h22ZM45.189,25.464,46.033,24H40.921v8H50.5l-4.85-4a2,2,0,0,1-.46-2.536ZM40.921,36v8h5.112l-.844-1.464A2,2,0,0,1,45.649,40l4.85-4ZM54.335,85.414l-7.414,7.414V94h12V72h-4V84a2,2,0,0,1-.586,1.414ZM67.012,112h-.092v-.1l-7.506-8.578A2,2,0,0,1,58.921,102V98h-4v18h15.6Zm23.08,4L75.507,101.414A2,2,0,0,1,74.921,100V72h-12v29.248l4,4.572V96h4v14.4l4.908,5.6Zm-54.344,0H50.921V98h-4v6a2,2,0,0,1-.586,1.414Zm9.572-27.224,5.6-5.6V72h-6v8a2,2,0,0,1-.939,1.7c-.746.468-1.42.88-2.124,1.313ZM28.287,8.552,24.01,10.693A30.745,30.745,0,0,0,6.921,38.342a11.582,11.582,0,0,0,3.414,8.244,2,2,0,0,1,.414,2.226L4,64H8.921a2,2,0,0,1,2,2v6h.344a11.576,11.576,0,0,0,8.242-3.414,2,2,0,0,1,2.828,2.828,15.5,15.5,0,0,1-8.771,4.4l.771.771A2,2,0,0,1,14.921,78V88l9.811.012a106.329,106.329,0,0,0,13.35-7.38l.01-.01H38.1c.941-.572,1.886-1.152,2.817-1.73V65.354l-8.742-3.5A2,2,0,0,1,30.921,60V52a2,2,0,0,1,.4-1.2l5.6-7.466V20.64ZM64.921,4h-16V8a2,2,0,0,1-2,2H34.235l6.312,8.838A1.979,1.979,0,0,1,40.921,20h7.422l.847-1.464a2,2,0,0,1,2.434-.872l7.7,2.886c.434-.282.876-.54,1.32-.771L62,11.67A2,2,0,0,1,63.972,10h.948ZM86.447,26l-2.306-4-7.1,2.662a2,2,0,0,1-1.9-.271,12,12,0,0,0-2.435-1.42,2,2,0,0,1-1.184-1.51L70.279,14H65.667l-1.244,7.464a2,2,0,0,1-1.184,1.51,12.118,12.118,0,0,0-2.435,1.42,2,2,0,0,1-1.9.271L51.8,22l-2.3,4,5.851,4.814a2,2,0,0,1,.714,1.781,10.76,10.76,0,0,0,0,2.813,2,2,0,0,1-.714,1.782L49.5,42l2.3,4,7.1-2.662a2,2,0,0,1,1.9.271,12.118,12.118,0,0,0,2.435,1.42,2,2,0,0,1,1.184,1.51L65.667,54h4.614l1.24-7.464a2,2,0,0,1,1.184-1.51,11.966,11.966,0,0,0,2.434-1.42,2,2,0,0,1,1.9-.271L84.141,46l2.306-4L80.6,37.186c-.035-.034-.069-.071-.1-.109a1.551,1.551,0,0,1-.11-.116,1.947,1.947,0,0,1-.359-.552l-.013-.022a1.978,1.978,0,0,1-.128-.689.66.66,0,0,1-.016-.086c0-.024.012-.044.014-.068s0-.092,0-.138a10.76,10.76,0,0,0,0-2.812A2,2,0,0,1,80.6,30.81ZM110.7,35.086a1.977,1.977,0,0,0-1.168-1,2,2,0,1,0,1.168,1Zm0,0" transform="translate(0.002 0)"/>
      <path id="Trazado_155" data-name="Trazado 155" class="cls-9" d="M180.066,320h-4v4h4Zm0,0" transform="translate(-109.143 -240)"/>
      <path id="Trazado_156" data-name="Trazado 156" class="cls-9" d="M180.066,352h-4v4h4Zm0,0" transform="translate(-109.143 -264)"/>
      <path id="Trazado_157" data-name="Trazado 157" class="cls-9" d="M228.066,224h-4v4h4Zm0,0" transform="translate(-169.143 -168)"/>
      <path id="Trazado_158" data-name="Trazado 158" class="cls-9" d="M260.066,224h-4v4h4Zm0,0" transform="translate(-209.143 -168)"/>
      <path id="Trazado_159" data-name="Trazado 159" class="cls-9" d="M332.066,80h-4v8h4Zm0,0" transform="translate(-299.144 -60)"/>
      <path id="Trazado_160" data-name="Trazado 160" class="cls-9" d="M332.066,128h-4v4h4Zm0,0" transform="translate(-299.144 -96)"/>
      <path id="Trazado_161" data-name="Trazado 161" class="cls-9" d="M332.066,160h-4v4h4Zm0,0" transform="translate(-299.144 -120)"/>
    </g>
    <path id="Trazado_698" data-name="Trazado 698" class="cls-10" d="M17.134-36.145a6.682,6.682,0,0,0-1.077-1.077,6.042,6.042,0,0,0-3.814-1.292,5.941,5.941,0,0,0-4.4,1.846A6.041,6.041,0,0,0,6-32.238a6.144,6.144,0,0,0,1.092,3.753,9.913,9.913,0,0,0,2.815,2.538,34.369,34.369,0,0,0,3.661,1.953q1.969.954,3.845,2.03a17.3,17.3,0,0,1,3.384,2.522,10.621,10.621,0,0,1,2.4,3.522,12.806,12.806,0,0,1,.892,5.06,11.589,11.589,0,0,1-.923,4.614A11.961,11.961,0,0,1,20.61-2.461,12.507,12.507,0,0,1,16.842.077a11.317,11.317,0,0,1-4.6.938A11.3,11.3,0,0,1,5.076-1.446,11.846,11.846,0,0,1,.8-7.783L1.63-8a5.518,5.518,0,0,1,1.138-.123A4.169,4.169,0,0,1,6.122-6.4,7.433,7.433,0,0,0,7.66-4.83a7.221,7.221,0,0,0,4.583,1.569A7.242,7.242,0,0,0,17.6-5.506a7.292,7.292,0,0,0,2.215-5.353A7.4,7.4,0,0,0,18.626-15.2a10.325,10.325,0,0,0-3.03-2.845,35.441,35.441,0,0,0-3.907-2.107q-1.907-.923-3.676-1.938a17.175,17.175,0,0,1-3.2-2.353,9.707,9.707,0,0,1-2.261-3.23,11.327,11.327,0,0,1-.831-4.568,10.3,10.3,0,0,1,.815-4.091A10.57,10.57,0,0,1,4.8-39.683a10.155,10.155,0,0,1,7.444-3.107,10.119,10.119,0,0,1,6.4,2.184,10.53,10.53,0,0,1,3.784,5.629l-.923.246a4.823,4.823,0,0,1-1.169.154A4.1,4.1,0,0,1,17.134-36.145Zm54.2,31.931V-18.8a7.8,7.8,0,0,0-2.369-5.722,7.811,7.811,0,0,0-5.722-2.4,7.746,7.746,0,0,0-5.722,2.4,7.746,7.746,0,0,0-2.4,5.722V0h-.062a4.078,4.078,0,0,1-2.969-1.23,4.038,4.038,0,0,1-1.246-2.984V-18.8a7.611,7.611,0,0,0-1.415-4.614,7.9,7.9,0,0,0-3.261-2.722,8.849,8.849,0,0,0-3.445-.784,7.552,7.552,0,0,0-1.354.123,7.935,7.935,0,0,0-4.337,2.276,7.746,7.746,0,0,0-2.4,5.722V-4.214a4.063,4.063,0,0,1-1.23,2.984A4.063,4.063,0,0,1,30.423,0h-.062V-30.208a4.113,4.113,0,0,1,3.876,2.43q3.045-2.8,5.291-3.107a27.212,27.212,0,0,1,3.138-.308,12.115,12.115,0,0,1,5.014,1.077A12.4,12.4,0,0,1,53-25.748a14.241,14.241,0,0,1,1.477-1.815,12.912,12.912,0,0,1,3.968-2.661,11.982,11.982,0,0,1,4.8-.969,11.982,11.982,0,0,1,4.8.969,12.536,12.536,0,0,1,3.938,2.661,12.912,12.912,0,0,1,2.661,3.968,11.982,11.982,0,0,1,.969,4.8V0h-.062a4.078,4.078,0,0,1-2.969-1.23A4.038,4.038,0,0,1,71.336-4.214ZM96.715-31.223a15.589,15.589,0,0,1,6.245,1.261,16.364,16.364,0,0,1,5.137,3.476A16.036,16.036,0,0,1,112.8-15.227v15.2h-.062a4,4,0,0,1-2.922-1.184,4.332,4.332,0,0,1-1.292-2.969q-.215.246-.431.461a16.364,16.364,0,0,1-5.137,3.476,15.589,15.589,0,0,1-6.245,1.261A15.666,15.666,0,0,1,90.439-.246,16.364,16.364,0,0,1,85.3-3.722a16.629,16.629,0,0,1-3.445-5.137A15.589,15.589,0,0,1,80.6-15.1a15.666,15.666,0,0,1,1.261-6.275A16.253,16.253,0,0,1,85.3-26.486a16.364,16.364,0,0,1,5.137-3.476A15.666,15.666,0,0,1,96.715-31.223Zm11.813,16.211V-15.2a11.765,11.765,0,0,0-3.445-8.275,11.961,11.961,0,0,0-3.784-2.553,11.512,11.512,0,0,0-4.583-.923,11.589,11.589,0,0,0-4.614.923,11.6,11.6,0,0,0-3.753,2.553A12.01,12.01,0,0,0,85.794-19.7a11.479,11.479,0,0,0-.923,4.6,11.479,11.479,0,0,0,.923,4.6,12.01,12.01,0,0,0,2.553,3.768A11.6,11.6,0,0,0,92.1-4.184a11.589,11.589,0,0,0,4.614.923,11.512,11.512,0,0,0,4.583-.923,11.961,11.961,0,0,0,3.784-2.553A11.765,11.765,0,0,0,108.527-15.012ZM119.786,0V-30.239h.062a4.085,4.085,0,0,1,3.753,2.307,9.862,9.862,0,0,1,6.46-2.307h4.122v.092a4.028,4.028,0,0,1-1.2,2.938A4.13,4.13,0,0,1,130-25.963a6.016,6.016,0,0,0-4.184,1.784,5.746,5.746,0,0,0-1.753,4.214v15.75a4.078,4.078,0,0,1-1.23,2.969A4.038,4.038,0,0,1,119.848,0Zm24.579-25.994V-.062H144.3a4.063,4.063,0,0,1-2.984-1.23,4.063,4.063,0,0,1-1.23-2.984V-25.994h-4.337V-30.27h4.337v-6.706a4.078,4.078,0,0,1,1.23-2.969A4.038,4.038,0,0,1,144.3-41.19h.062v10.92h6.4v.062a4.038,4.038,0,0,1-1.246,2.984,4.078,4.078,0,0,1-2.969,1.23Zm28.947-13.2,2.153,5.168L187.523-5.076,201.735-39.19a4.1,4.1,0,0,1,3.876-2.615h1.815l-6.891,16.55L190.015.031H187.8a4.139,4.139,0,0,1-3.876-2.584l-10.09-24.24L167.59-41.805H169.4A4.158,4.158,0,0,1,173.312-39.19Zm38.237,8.982h4.276V-4.214a4.063,4.063,0,0,1-1.23,2.984A4.063,4.063,0,0,1,211.61,0h-.062Zm2.123-10.92h0a3.021,3.021,0,0,1,2.215.923,3.021,3.021,0,0,1,.923,2.215h0a3.021,3.021,0,0,1-.923,2.215,3.021,3.021,0,0,1-2.215.923h0a2.97,2.97,0,0,1-2.2-.923,3.046,3.046,0,0,1-.907-2.215h0a3.046,3.046,0,0,1,.907-2.215A2.97,2.97,0,0,1,213.671-41.128Zm24.486,14.212a11.512,11.512,0,0,0-4.583.923,12.225,12.225,0,0,0-3.784,2.522,12.225,12.225,0,0,0-2.522,3.784,11.512,11.512,0,0,0-.923,4.583,11.589,11.589,0,0,0,.923,4.614,11.852,11.852,0,0,0,2.522,3.753,11.961,11.961,0,0,0,3.784,2.553,11.512,11.512,0,0,0,4.583.923,11.589,11.589,0,0,0,4.614-.923,11.6,11.6,0,0,0,3.753-2.553,11.6,11.6,0,0,0,2.553-3.753A11.589,11.589,0,0,0,250-15.1a11.512,11.512,0,0,0-.923-4.583,11.961,11.961,0,0,0-2.553-3.784,11.852,11.852,0,0,0-3.753-2.522A11.589,11.589,0,0,0,238.157-26.917Zm16.4-10V0h-.062a4.038,4.038,0,0,1-2.984-1.246,4.078,4.078,0,0,1-1.23-2.969V-4.46q-.338.4-.708.769a16.629,16.629,0,0,1-5.137,3.445,15.666,15.666,0,0,1-6.275,1.261,15.589,15.589,0,0,1-6.245-1.261,16.629,16.629,0,0,1-5.137-3.445,16.15,16.15,0,0,1-3.461-5.137,15.833,15.833,0,0,1-1.246-6.275,15.755,15.755,0,0,1,1.246-6.245,16.15,16.15,0,0,1,3.461-5.137,16.15,16.15,0,0,1,5.137-3.461,15.756,15.756,0,0,1,6.245-1.246,15.833,15.833,0,0,1,6.275,1.246,16.15,16.15,0,0,1,5.137,3.461q.369.369.708.738V-41.128h.062a4.078,4.078,0,0,1,2.969,1.23A4.038,4.038,0,0,1,254.553-36.914ZM291.037-7.075a16,16,0,0,1-5.906,5.906A15.548,15.548,0,0,1,277.1.984a15.666,15.666,0,0,1-6.275-1.261,16.629,16.629,0,0,1-5.137-3.445,16.629,16.629,0,0,1-3.445-5.137,15.666,15.666,0,0,1-1.261-6.275,15.589,15.589,0,0,1,1.261-6.245,16.629,16.629,0,0,1,3.445-5.137,16.364,16.364,0,0,1,5.137-3.476,15.666,15.666,0,0,1,6.275-1.261,15.589,15.589,0,0,1,6.245,1.261,16.364,16.364,0,0,1,5.137,3.476,16.364,16.364,0,0,1,3.476,5.137,15.589,15.589,0,0,1,1.261,6.245v2.153H265.443a11.914,11.914,0,0,0,3.292,6.214,11.6,11.6,0,0,0,3.753,2.553,11.589,11.589,0,0,0,4.614.923,11.465,11.465,0,0,0,5.906-1.569,12.456,12.456,0,0,0,2.43-1.846,4.3,4.3,0,0,1,2.922-1.261,4.6,4.6,0,0,1,2.153.584ZM268.734-23.5a11.928,11.928,0,0,0-3.292,6.245h23.287a11.742,11.742,0,0,0-3.261-6.245,11.961,11.961,0,0,0-3.784-2.553,11.512,11.512,0,0,0-4.583-.923,11.589,11.589,0,0,0-4.614.923A11.6,11.6,0,0,0,268.734-23.5Zm43.436-7.721a15.833,15.833,0,0,1,6.275,1.246,16.15,16.15,0,0,1,5.137,3.461,16.15,16.15,0,0,1,3.461,5.137,15.755,15.755,0,0,1,1.246,6.245,15.833,15.833,0,0,1-1.246,6.275,16.15,16.15,0,0,1-3.461,5.137,16.15,16.15,0,0,1-5.137,3.461A15.833,15.833,0,0,1,312.17.984a15.755,15.755,0,0,1-6.245-1.246,16.15,16.15,0,0,1-5.137-3.461,16.15,16.15,0,0,1-3.461-5.137,15.833,15.833,0,0,1-1.246-6.275,15.755,15.755,0,0,1,1.246-6.245,16.15,16.15,0,0,1,3.461-5.137,16.15,16.15,0,0,1,5.137-3.461A15.755,15.755,0,0,1,312.17-31.223Zm8.4,7.721a12.225,12.225,0,0,0-3.784-2.522,11.589,11.589,0,0,0-4.614-.923,11.512,11.512,0,0,0-4.583.923A12.225,12.225,0,0,0,303.8-23.5a12.225,12.225,0,0,0-2.522,3.784,11.512,11.512,0,0,0-.923,4.583,11.589,11.589,0,0,0,.923,4.614A12.225,12.225,0,0,0,303.8-6.737a12.225,12.225,0,0,0,3.784,2.522,11.512,11.512,0,0,0,4.583.923,11.589,11.589,0,0,0,4.614-.923,12.225,12.225,0,0,0,3.784-2.522,12.225,12.225,0,0,0,2.522-3.784,11.589,11.589,0,0,0,.923-4.614,11.512,11.512,0,0,0-.923-4.583A12.225,12.225,0,0,0,320.568-23.5Z" transform="translate(1258 903)"/>
  </g>
</svg>
